<?xml version="1.0" encoding="UTF-8" standalone="no"?>
<svg
   xmlns:dc="http://purl.org/dc/elements/1.1/"
   xmlns:cc="http://creativecommons.org/ns#"
   xmlns:rdf="http://www.w3.org/1999/02/22-rdf-syntax-ns#"
   xmlns:svg="http://www.w3.org/2000/svg"
   xmlns="http://www.w3.org/2000/svg"
   xmlns:sodipodi="http://sodipodi.sourceforge.net/DTD/sodipodi-0.dtd"
   xmlns:inkscape="http://www.inkscape.org/namespaces/inkscape"
   inkscape:version="1.0beta1 (32d4812, 2019-09-19)"
   height="352.94101"
   width="1000"
   sodipodi:docname="AOL.svg"
   id="svg835"
   version="1.1"
   title="aol logo"
   alt="aol logo"
   viewBox="0 0 1000 352.94101"
   class="logo">
  <metadata
     id="metadata841">
    <rdf:RDF>
      <cc:Work
         rdf:about="">
        <dc:format>image/svg+xml</dc:format>
        <dc:type
           rdf:resource="http://purl.org/dc/dcmitype/StillImage" />
        <dc:title></dc:title>
      </cc:Work>
    </rdf:RDF>
  </metadata>
  <defs
     id="defs839" />
  <sodipodi:namedview
     inkscape:current-layer="svg835"
     inkscape:window-maximized="0"
     inkscape:window-y="25"
     inkscape:window-x="0"
     inkscape:cy="560"
     inkscape:cx="400"
     inkscape:zoom="0.35"
     showgrid="false"
     id="namedview837"
     inkscape:window-height="907"
     inkscape:window-width="1600"
     inkscape:pageshadow="2"
     inkscape:pageopacity="0"
     guidetolerance="10"
     gridtolerance="10"
     objecttolerance="10"
     borderopacity="1"
     inkscape:document-rotation="0"
     bordercolor="#666666"
     pagecolor="#ffffff" />
  <path
     style="stroke-width:1.17647"
     inkscape:connector-curvature="0"
     id="path833"
     d="M 92.801647,71.643059 C 107.31565,28.862353 147.48588,0 192.64,0 c 45.15529,0 85.17882,28.862353 99.54588,71.643059 L 384.98706,345.02941 H 266.09059 L 250.54941,296.38824 H 134.43765 l -15.54,48.64117 H 0 Z M 192.49412,114.86341 162,210.38706 h 60.98824 z M 683.03765,47.176 C 666.32471,32.085529 646.67882,20.511294 624.10235,12.306824 601.52471,4.1022588 576.89529,0 550.50588,0 524.11647,0 499.48706,4.1022588 476.90941,12.306824 454.18588,20.511294 434.68706,32.085529 418.12,47.176 c -16.56588,15.090471 -29.46706,33.404118 -38.99647,54.94106 -9.38353,21.53706 -14.22118,45.71118 -14.22118,72.52176 0,26.81177 4.69177,51.13177 14.22118,73.10824 9.38235,21.97647 22.43059,40.87647 38.99647,56.40706 16.56706,15.52941 36.06588,27.54353 58.78941,36.04117 22.57765,8.49765 47.20706,12.74589 73.59647,12.74589 26.38941,0 51.01883,-4.24824 73.59647,-12.74589 22.57647,-8.49764 42.36941,-20.51176 58.9353,-36.04117 16.71294,-15.53059 29.76117,-34.43059 39.14353,-56.40706 9.38353,-21.97647 14.22117,-46.44353 14.22117,-73.10824 0,-26.6647 -4.69176,-50.83882 -14.22117,-72.52176 C 712.79882,80.580118 699.75059,62.266471 683.03765,47.176 Z M 611.64,204.82 c -3.37176,9.08353 -7.91647,16.99529 -13.92706,23.58824 -6.01059,6.59294 -12.90118,11.72117 -20.9647,15.38352 -8.06353,3.66236 -16.71295,5.42118 -26.24236,5.42118 -9.52941,0 -18.32588,-1.75882 -26.38941,-5.42118 -8.20941,-3.66235 -15.1,-8.79058 -20.96471,-15.38352 -5.86352,-6.59295 -10.40823,-14.50471 -13.63411,-23.58824 -3.37177,-9.08353 -4.98471,-19.19294 -4.98471,-30.18118 0,-10.98823 1.61294,-20.51058 4.98471,-29.44823 3.37176,-8.93647 7.91647,-16.5553 13.63411,-22.70824 5.86471,-6.15388 12.7553,-10.9887 20.96471,-14.35835 8.21059,-3.51624 17.00706,-5.12788 26.38941,-5.12788 9.38236,0 18.17883,1.75812 26.24236,5.12788 8.06352,3.51624 14.95411,8.20447 20.9647,14.35835 6.01059,6.15294 10.5553,13.62471 13.92706,22.70824 3.37294,8.93765 4.98471,18.46 4.98471,29.44823 0,10.98824 -1.61177,21.09765 -4.98471,30.18118 z m 263.01176,43.36706 V 10.841694 H 761.32588 V 257.56353 c 0,48.34823 39.14353,87.61294 87.66941,87.61294 H 1000 V 248.33294 H 874.79882 Z" />
</svg>
